<svg id="svg" version="1.1" xmlns="http://www.w3.org/2000/svg" xmlns:xlink="http://www.w3.org/1999/xlink" width="400" height="378.3783783783784" viewBox="0, 0, 400,378.3783783783784"><g id="svgg"><path id="path0" d="M104.140 9.241 C 88.466 11.851,69.709 20.387,52.267 32.848 C 38.498 42.685,19.478 64.996,16.112 75.260 C 15.362 77.547,14.436 79.816,14.054 80.303 C 10.439 84.905,9.409 103.826,11.228 132.225 C 12.841 157.405,12.653 166.564,10.000 192.064 C 8.153 209.807,7.814 232.654,9.245 242.827 C 9.727 246.258,10.152 249.532,10.189 250.104 C 10.226 250.676,10.557 251.143,10.923 251.143 C 11.290 251.143,11.373 251.710,11.107 252.401 C 10.842 253.093,11.028 254.145,11.521 254.739 C 12.014 255.334,13.158 258.790,14.063 262.421 C 16.323 271.494,19.739 282.611,21.269 285.872 C 21.968 287.364,22.311 288.954,22.032 289.406 C 21.752 289.859,21.851 290.229,22.252 290.229 C 22.653 290.229,23.658 292.380,24.484 295.010 C 25.311 297.640,27.018 302.037,28.278 304.782 C 29.539 307.526,31.820 312.578,33.348 316.008 C 34.876 319.439,36.366 322.432,36.658 322.661 C 36.951 322.890,37.768 324.200,38.474 325.572 C 39.678 327.911,41.655 330.569,44.351 333.472 C 44.988 334.158,46.453 336.216,47.607 338.046 C 51.484 344.191,66.141 357.588,68.987 357.588 C 69.464 357.588,69.854 357.897,69.854 358.275 C 69.854 361.668,90.229 368.618,106.149 370.656 L 117.080 372.054 140.661 369.671 C 179.141 365.781,200.846 365.917,225.171 370.201 C 239.409 372.708,272.060 373.358,280.516 371.302 C 298.262 366.989,308.349 360.743,318.777 347.609 C 321.137 344.636,323.351 342.079,323.696 341.927 C 324.042 341.774,324.324 341.339,324.324 340.960 C 324.324 340.581,325.853 337.619,327.722 334.377 C 329.591 331.136,331.802 326.706,332.636 324.533 C 333.470 322.360,335.892 316.279,338.018 311.019 C 340.145 305.759,342.841 298.836,344.010 295.634 C 347.403 286.344,357.373 265.385,361.613 258.628 C 362.905 256.570,365.585 252.079,367.569 248.649 C 369.553 245.218,372.342 240.541,373.766 238.254 C 376.804 233.375,379.210 228.263,379.210 226.685 C 379.210 226.070,379.736 225.131,380.380 224.597 C 381.023 224.063,382.601 221.117,383.886 218.050 C 385.172 214.983,386.548 212.245,386.946 211.965 C 387.343 211.685,387.681 211.124,387.697 210.718 C 387.712 210.312,388.040 209.151,388.425 208.138 C 388.810 207.125,389.718 204.131,390.441 201.485 C 391.165 198.839,392.115 196.024,392.552 195.230 C 393.634 193.265,393.600 155.764,392.516 155.094 C 392.058 154.811,391.684 153.573,391.683 152.342 C 391.676 138.923,377.496 103.240,365.106 85.463 C 342.206 52.608,320.193 42.016,257.380 33.626 C 242.061 31.580,238.703 30.973,223.701 27.540 C 216.375 25.863,213.690 25.127,192.100 18.878 C 178.056 14.813,163.622 11.284,153.846 9.526 C 146.734 8.247,111.327 8.044,104.140 9.241 M71.518 11.642 C 71.518 12.100,72.079 12.474,72.765 12.474 C 73.451 12.474,74.012 12.100,74.012 11.642 C 74.012 11.185,73.451 10.811,72.765 10.811 C 72.079 10.811,71.518 11.185,71.518 11.642 M56.280 18.629 C 56.014 19.322,56.483 19.965,57.438 20.214 C 58.610 20.521,59.044 20.206,59.044 19.049 C 59.044 17.218,56.944 16.899,56.280 18.629 M320.571 40.783 C 319.955 42.725,320.662 44.075,322.294 44.075 C 323.876 44.075,323.871 40.240,322.288 39.632 C 321.560 39.353,320.880 39.809,320.571 40.783 M360.083 71.933 C 360.083 72.620,360.644 73.181,361.331 73.181 C 362.017 73.181,362.578 72.620,362.578 71.933 C 362.578 71.247,362.017 70.686,361.331 70.686 C 360.644 70.686,360.083 71.247,360.083 71.933 M376.715 244.906 C 376.715 246.311,377.096 246.997,377.755 246.778 C 378.326 246.587,378.794 245.745,378.794 244.906 C 378.794 244.068,378.326 243.226,377.755 243.035 C 377.096 242.816,376.715 243.502,376.715 244.906 M370.894 250.312 C 370.894 251.227,371.393 251.975,372.003 251.975 C 373.567 251.975,374.180 251.175,373.658 249.815 C 372.980 248.046,370.894 248.421,370.894 250.312 M323.493 350.520 C 323.493 351.206,324.054 351.767,324.740 351.767 C 325.426 351.767,325.988 351.206,325.988 350.520 C 325.988 349.834,325.426 349.272,324.740 349.272 C 324.054 349.272,323.493 349.834,323.493 350.520 " stroke="none" fill="#000000" fill-rule="evenodd"></path></g></svg>