<svg id="svg" xmlns="http://www.w3.org/2000/svg" xmlns:xlink="http://www.w3.org/1999/xlink" width="400" height="350.8137432188065" viewBox="0, 0, 400,350.8137432188065"><g id="svgg"><path id="path0" d="M141.049 27.830 C 116.045 32.063,92.578 46.566,77.233 67.269 C 65.850 82.627,63.910 92.850,66.179 125.497 C 67.531 144.948,67.403 150.474,65.117 171.429 C 61.349 205.973,64.048 223.507,78.813 260.398 C 86.159 278.750,104.175 302.351,110.839 302.351 C 111.456 302.351,112.154 302.853,112.389 303.466 C 112.986 305.023,122.196 309.251,129.114 311.145 C 137.159 313.348,159.969 313.464,176.854 311.388 C 194.600 309.206,213.834 309.455,233.273 312.119 C 290.580 319.971,307.308 310.333,326.801 258.228 C 332.989 241.686,334.969 237.520,344.844 220.253 C 364.584 185.738,367.675 177.539,367.610 159.855 C 367.446 114.696,342.353 71.283,308.197 57.064 C 298.565 53.054,288.041 50.829,262.209 47.342 C 242.755 44.715,236.094 43.312,215.776 37.561 C 178.817 27.100,159.907 24.637,141.049 27.830 " stroke="none" fill="#000000" fill-rule="evenodd"></path></g></svg>