<svg id="svg" xmlns="http://www.w3.org/2000/svg" xmlns:xlink="http://www.w3.org/1999/xlink" width="400" height="378.3783783783784" viewBox="0, 0, 400,378.3783783783784"><g id="svgg"><path id="path0" d="M108.108 0.418 C 107.422 0.587,102.931 1.349,98.129 2.110 C 93.326 2.872,89.210 3.762,88.981 4.088 C 88.753 4.414,84.636 5.914,79.834 7.422 C 75.031 8.930,70.915 10.453,70.686 10.806 C 70.457 11.160,67.665 12.628,64.481 14.068 C 61.297 15.509,58.490 16.988,58.244 17.355 C 57.998 17.723,55.925 19.079,53.638 20.370 C 51.351 21.661,49.106 23.146,48.649 23.669 C 48.191 24.193,46.074 25.811,43.944 27.266 C 41.814 28.721,38.993 30.947,37.676 32.212 C 36.359 33.476,34.359 35.291,33.233 36.244 C 31.147 38.009,23.772 46.344,21.759 49.212 C 21.149 50.082,19.708 51.808,18.557 53.047 C 17.406 54.287,15.897 56.424,15.204 57.796 C 14.510 59.168,13.312 61.040,12.542 61.954 C 11.299 63.429,10.315 65.490,6.186 75.260 C 2.661 83.601,1.916 100.104,3.747 129.314 C 5.371 155.212,5.162 164.702,2.382 191.268 C -0.609 219.851,0.046 244.174,4.162 257.380 C 4.589 258.753,5.901 263.243,7.077 267.360 C 8.252 271.476,9.575 275.497,10.016 276.294 C 10.457 277.091,11.036 279.150,11.303 280.868 C 11.570 282.586,12.314 285.114,12.955 286.486 C 13.597 287.859,15.268 292.522,16.669 296.850 C 18.070 301.178,19.520 305.108,19.891 305.582 C 20.263 306.057,21.528 308.877,22.703 311.850 C 25.472 318.858,31.216 329.802,33.297 332.035 C 34.193 332.998,34.927 334.070,34.927 334.418 C 34.927 335.354,47.666 351.081,49.990 353.015 C 51.090 353.929,54.085 356.455,56.646 358.628 C 59.207 360.800,61.917 362.578,62.668 362.578 C 63.419 362.578,64.033 362.893,64.033 363.279 C 64.033 363.664,65.343 364.685,66.944 365.547 C 68.545 366.409,69.854 367.356,69.854 367.652 C 69.854 368.276,84.932 373.389,86.773 373.389 C 87.454 373.389,88.136 373.742,88.288 374.173 C 89.336 377.138,141.563 377.184,148.441 374.225 C 155.563 371.162,209.959 371.166,216.632 374.230 C 219.127 375.376,242.341 377.623,256.965 378.135 C 271.331 378.637,286.328 376.991,292.308 374.256 C 294.137 373.419,298.160 371.717,301.247 370.473 C 304.335 369.229,306.861 367.930,306.861 367.585 C 306.861 367.239,308.411 365.931,310.306 364.677 C 314.165 362.123,324.996 350.967,323.671 350.910 C 323.344 350.896,323.698 350.522,324.458 350.079 C 325.217 349.636,326.654 347.589,327.651 345.530 C 328.647 343.472,329.803 341.788,330.220 341.788 C 330.636 341.788,330.977 341.378,330.977 340.878 C 330.977 340.377,332.983 335.793,335.435 330.690 C 337.888 325.588,340.572 319.543,341.400 317.256 C 342.228 314.969,343.200 312.704,343.559 312.224 C 343.918 311.743,345.381 307.720,346.809 303.284 C 348.237 298.848,349.794 295.218,350.268 295.218 C 350.742 295.218,350.934 294.470,350.695 293.555 C 350.455 292.640,350.522 291.892,350.843 291.892 C 351.164 291.892,352.516 288.898,353.846 285.239 C 355.177 281.580,356.585 278.586,356.976 278.586 C 357.367 278.586,357.455 278.212,357.173 277.755 C 356.890 277.297,356.961 276.923,357.331 276.922 C 357.701 276.921,359.114 274.489,360.470 271.517 C 361.827 268.544,363.252 266.112,363.638 266.112 C 364.024 266.112,364.108 265.738,363.825 265.281 C 363.543 264.823,363.638 264.449,364.038 264.449 C 364.438 264.449,365.431 263.046,366.245 261.331 C 367.059 259.615,369.373 255.561,371.388 252.321 C 373.403 249.081,375.052 245.994,375.052 245.460 C 375.052 244.927,375.740 243.803,376.580 242.963 C 377.421 242.122,379.358 238.848,380.885 235.686 C 382.413 232.524,383.877 229.751,384.139 229.522 C 386.524 227.440,396.674 203.137,396.674 199.508 C 396.674 198.711,397.027 197.935,397.458 197.782 C 400.616 196.667,400.658 146.362,397.501 146.362 C 397.170 146.362,396.677 144.735,396.404 142.746 C 395.662 137.335,391.635 121.071,390.917 120.588 C 390.572 120.356,390.068 119.418,389.795 118.503 C 387.882 112.084,379.366 93.353,377.129 90.644 C 376.563 89.958,375.075 87.526,373.822 85.239 C 372.570 82.952,371.025 80.782,370.388 80.416 C 369.752 80.050,369.231 79.289,369.231 78.724 C 369.231 75.156,344.807 51.434,337.222 47.635 C 334.931 46.487,332.489 45.051,331.795 44.443 C 331.102 43.835,327.360 42.140,323.479 40.676 C 319.599 39.213,316.050 37.738,315.593 37.400 C 314.589 36.657,302.700 33.753,295.218 32.423 C 292.245 31.894,289.064 31.131,288.150 30.726 C 287.235 30.322,276.630 28.839,264.583 27.430 C 252.536 26.022,242.058 24.544,241.298 24.145 C 240.539 23.747,237.110 22.976,233.680 22.433 C 225.651 21.163,212.596 18.219,212.058 17.559 C 211.830 17.278,206.497 15.756,200.208 14.176 C 193.919 12.597,188.773 11.065,188.773 10.773 C 188.773 10.480,183.067 8.990,176.091 7.460 C 169.116 5.931,163.222 4.423,162.994 4.108 C 161.418 1.941,114.682 -1.201,108.108 0.418 M65.821 3.285 C 66.179 4.357,67.319 4.549,67.422 3.555 C 67.456 3.223,67.035 2.802,66.486 2.620 C 65.938 2.437,65.638 2.736,65.821 3.285 M50.450 10.534 C 49.494 11.490,49.845 12.474,51.143 12.474 C 51.830 12.474,52.391 11.913,52.391 11.227 C 52.391 9.928,51.407 9.577,50.450 10.534 M324.826 33.755 C 324.261 35.229,324.842 36.590,326.037 36.590 C 326.467 36.590,326.819 35.655,326.819 34.511 C 326.819 32.185,325.606 31.724,324.826 33.755 M382.536 246.154 C 382.536 247.078,383.091 247.817,383.784 247.817 C 384.477 247.817,385.031 247.078,385.031 246.154 C 385.031 245.230,384.477 244.491,383.784 244.491 C 383.091 244.491,382.536 245.230,382.536 246.154 M377.547 251.559 C 377.547 252.245,377.921 252.807,378.378 252.807 C 378.836 252.807,379.210 252.245,379.210 251.559 C 379.210 250.873,378.836 250.312,378.378 250.312 C 377.921 250.312,377.547 250.873,377.547 251.559 " stroke="none" fill="#000000" fill-rule="evenodd"></path></g></svg>